<svg xmlns="http://www.w3.org/2000/svg" width="1200" height="630" viewBox="0 0 1200 630">
  <rect width="1200" height="630" fill="#f4f0e7"/>
  <circle cx="1040" cy="110" r="155" fill="#dce4d7"/>
  <circle cx="1040" cy="110" r="115" fill="#e7d7ca"/>
  <g transform="translate(815 112) rotate(-5)">
    <rect x="0" y="0" width="250" height="330" rx="18" fill="#fffdf8" stroke="#56544d" stroke-width="4"/>
    <circle cx="125" cy="95" r="6" fill="#56544d"/><circle cx="162" cy="95" r="6" fill="#56544d"/>
    <path d="M123 126 Q145 143 168 124" fill="none" stroke="#56544d" stroke-width="5" stroke-linecap="round"/>
    <path d="M50 190 H200 M50 230 H180 M50 270 H145" stroke="#b9b6ad" stroke-width="8" stroke-linecap="round"/>
  </g>
  <rect x="85" y="74" width="72" height="72" rx="18" fill="#4e6354"/>
  <text x="121" y="126" text-anchor="middle" font-family="Georgia,serif" font-size="48" font-weight="700" fill="#fffdf8">B</text>
  <text x="180" y="128" font-family="Arial,sans-serif" font-size="43" font-weight="700" fill="#34332f">BreadFile</text>
  <text x="85" y="255" font-family="Georgia,serif" font-size="72" font-weight="600" fill="#34332f">PDF chores.</text>
  <text x="85" y="335" font-family="Georgia,serif" font-size="72" font-weight="600" fill="#4e6354">Much less boring.</text>
  <text x="88" y="405" font-family="Arial,sans-serif" font-size="28" fill="#68665f">Free PDF tools that work privately in your browser.</text>
  <g transform="translate(87 470)"><rect width="480" height="67" rx="12" fill="#4e6354"/><text x="240" y="44" text-anchor="middle" font-family="Arial,sans-serif" font-size="25" font-weight="700" fill="#fffdf8">No uploads · No account · No waiting</text></g>
</svg>
